<svg xmlns="http://www.w3.org/2000/svg" width="1024" height="1024" viewBox="0 0 1024 1024">
  <path d="M 273.000 651.000 C 255.183 656.345 236.319 667.363 228.000 684.000 C 220.893 698.214 217.071 715.380 220.000 731.000 C 223.322 748.719 234.816 766.282 250.000 776.000 C 254.395 778.813 259.156 781.062 264.000 783.000 C 267.529 784.412 271.211 785.709 275.000 786.000 C 284.306 786.716 293.749 787.234 303.000 786.000 C 308.957 785.206 314.509 782.441 320.000 780.000 C 323.552 778.421 327.095 776.583 330.000 774.000 C 336.168 768.517 342.461 762.893 347.000 756.000 C 351.598 749.018 355.421 741.210 357.000 733.000 C 358.826 723.507 357.741 713.638 357.000 704.000 C 355.297 681.864 333.675 662.090 313.000 654.000 C 300.549 649.128 286.371 651.000 273.000 651.000 Z" fill="#f33d3b" />
  <path d="M 766.000 608.000 C 741.417 611.073 715.786 620.753 698.000 638.000 C 677.914 657.477 666.392 688.028 667.000 716.000 C 667.574 742.395 681.047 769.621 700.000 788.000 C 719.832 807.231 750.385 816.727 778.000 816.000 C 783.373 815.859 788.753 815.166 794.000 814.000 C 800.794 812.490 807.664 810.880 814.000 808.000 C 822.431 804.168 830.393 799.283 838.000 794.000 C 842.457 790.905 846.386 787.048 850.000 783.000 C 854.751 777.679 859.170 772.018 863.000 766.000 C 866.201 760.969 868.985 755.612 871.000 750.000 C 873.677 742.543 875.782 734.829 877.000 727.000 C 878.128 719.746 878.623 712.314 878.000 705.000 C 877.279 696.532 875.459 688.135 873.000 680.000 C 865.602 655.529 846.468 633.197 824.000 621.000 C 806.587 611.547 785.793 608.900 766.000 608.000 Z" fill="#f33d3b" />
  <path d="M 408.000 528.000 C 402.093 528.000 404.396 539.261 403.000 545.000 C 401.331 551.863 399.109 558.658 396.000 565.000 C 390.741 575.729 384.399 585.909 378.000 596.000 C 375.714 599.605 372.970 602.934 370.000 606.000 C 362.618 613.620 355.528 621.689 347.000 628.000 C 338.451 634.326 310.942 639.426 320.000 645.000 C 333.346 653.213 348.886 660.594 357.000 674.000 C 364.260 685.994 366.600 700.399 370.000 714.000 C 371.592 720.370 375.306 701.988 378.000 696.000 C 385.323 679.727 395.540 664.679 407.000 651.000 C 424.339 630.306 448.987 614.226 475.000 607.000 C 480.544 605.460 486.480 605.624 492.000 604.000 C 493.722 603.493 488.741 602.435 487.000 602.000 C 464.649 596.412 443.171 583.338 428.000 566.000 C 425.014 562.588 422.353 558.875 420.000 555.000 C 414.889 546.581 410.830 537.433 408.000 528.000 Z" fill="#f33d3b" />
  <path d="M 618.000 496.000 C 618.000 500.667 618.464 505.356 618.000 510.000 C 617.460 515.399 616.316 520.736 615.000 526.000 C 613.977 530.090 612.725 534.153 611.000 538.000 C 608.377 543.851 605.739 549.792 602.000 555.000 C 596.349 562.871 590.202 570.518 583.000 577.000 C 576.747 582.628 568.692 585.901 562.000 591.000 C 556.631 595.090 574.657 595.693 581.000 598.000 C 596.040 603.469 608.956 614.418 620.000 626.000 C 626.257 632.563 631.158 640.333 636.000 648.000 C 639.184 653.042 641.808 658.455 644.000 664.000 C 647.488 672.822 650.461 681.859 653.000 691.000 C 653.846 694.047 655.168 703.051 656.000 700.000 C 658.978 689.080 659.541 677.403 664.000 667.000 C 670.046 652.893 679.147 639.853 690.000 629.000 C 700.003 618.997 711.981 610.533 725.000 605.000 C 737.279 599.782 751.013 599.056 764.000 596.000 C 778.777 592.523 735.238 586.266 721.000 581.000 C 689.438 569.326 658.838 550.603 637.000 525.000 C 632.499 519.723 628.508 513.984 625.000 508.000 C 622.658 504.005 622.631 496.000 618.000 496.000 Z" fill="#f33d3b" />
  <path d="M 502.000 404.000 C 478.862 408.407 453.800 417.677 439.000 436.000 C 422.970 455.847 413.881 483.576 416.000 509.000 C 417.920 532.038 431.352 555.067 449.000 570.000 C 466.545 584.846 491.027 593.696 514.000 593.000 C 519.372 592.837 524.760 592.198 530.000 591.000 C 536.475 589.520 542.937 587.712 549.000 585.000 C 555.680 582.012 562.125 578.364 568.000 574.000 C 573.869 569.641 579.199 564.513 584.000 559.000 C 588.251 554.119 591.827 548.641 595.000 543.000 C 597.854 537.926 600.299 532.567 602.000 527.000 C 603.987 520.498 605.288 513.761 606.000 507.000 C 606.628 501.033 606.628 494.967 606.000 489.000 C 605.288 482.239 604.150 475.450 602.000 469.000 C 599.784 462.352 596.606 456.009 593.000 450.000 C 589.570 444.283 585.429 438.983 581.000 434.000 C 562.286 412.947 530.168 404.000 502.000 404.000 Z" fill="#f33d3b" />
  <path d="M 359.000 357.000 C 357.667 361.667 356.831 366.505 355.000 371.000 C 353.143 375.558 351.022 380.115 348.000 384.000 C 341.626 392.195 335.035 400.426 327.000 407.000 C 320.184 412.577 312.190 416.762 304.000 420.000 C 297.677 422.500 290.450 421.850 284.000 424.000 C 270.256 428.581 310.576 435.552 324.000 441.000 C 350.139 451.607 375.731 467.694 393.000 490.000 C 396.511 494.535 402.128 509.668 403.000 504.000 C 404.322 495.409 403.511 486.564 405.000 478.000 C 407.557 463.295 414.559 449.310 423.000 437.000 C 426.476 431.931 430.654 427.346 435.000 423.000 C 438.000 420.000 448.160 414.832 444.000 414.000 C 440.731 413.346 437.305 414.431 434.000 414.000 C 429.590 413.425 425.169 412.548 421.000 411.000 C 413.449 408.195 405.750 405.396 399.000 401.000 C 391.274 395.969 384.519 389.519 378.000 383.000 C 373.803 378.803 370.248 373.967 367.000 369.000 C 364.369 364.976 363.807 357.000 359.000 357.000 Z" fill="#f33d3b" />
  <path d="M 265.000 258.000 C 243.856 261.731 221.563 271.355 208.000 288.000 C 195.534 303.299 190.213 325.347 192.000 345.000 C 193.797 364.765 205.560 384.530 221.000 397.000 C 225.316 400.486 230.075 403.446 235.000 406.000 C 239.122 408.137 243.443 410.111 248.000 411.000 C 257.213 412.798 266.616 413.771 276.000 414.000 C 280.383 414.107 284.747 413.063 289.000 412.000 C 294.113 410.722 299.146 409.054 304.000 407.000 C 307.847 405.373 311.628 403.464 315.000 401.000 C 320.342 397.096 325.779 393.095 330.000 388.000 C 335.546 381.307 340.025 373.730 344.000 366.000 C 346.074 361.968 347.189 357.461 348.000 353.000 C 349.199 346.408 350.568 339.676 350.000 333.000 C 349.218 323.814 346.850 314.768 344.000 306.000 C 337.587 286.269 318.426 270.285 299.000 263.000 C 288.274 258.978 276.438 258.635 265.000 258.000 Z" fill="#f33d3b" />
  <path d="M 580.000 232.000 C 578.000 249.000 577.290 266.202 574.000 283.000 C 570.937 298.637 566.595 314.081 561.000 329.000 C 556.551 340.864 550.454 352.096 544.000 363.000 C 540.739 368.510 536.528 373.472 532.000 378.000 C 527.803 382.197 522.339 384.951 518.000 389.000 C 517.229 389.719 515.992 391.693 517.000 392.000 C 535.152 397.524 556.108 398.243 571.000 410.000 C 579.518 416.725 587.555 424.104 595.000 432.000 C 598.616 435.835 601.344 440.447 604.000 445.000 C 606.190 448.754 609.704 460.148 611.000 456.000 C 618.694 431.378 626.985 405.389 644.000 386.000 C 665.462 361.543 693.593 343.540 721.000 326.000 C 727.464 321.863 705.672 326.840 698.000 327.000 C 689.642 327.174 681.267 326.240 673.000 325.000 C 646.199 320.980 620.003 303.871 604.000 282.000 C 598.531 274.526 593.586 266.539 590.000 258.000 C 586.404 249.439 589.286 232.000 580.000 232.000 Z" fill="#f33d3b" />
  <path d="M 685.000 116.000 C 658.966 121.207 632.061 133.658 615.000 154.000 C 598.729 173.400 591.141 201.842 594.000 227.000 C 596.797 251.609 610.604 276.597 630.000 292.000 C 650.478 308.262 678.941 317.172 705.000 315.000 C 710.408 314.549 715.783 313.491 721.000 312.000 C 727.490 310.146 733.994 308.080 740.000 305.000 C 747.075 301.372 753.754 296.921 760.000 292.000 C 764.814 288.207 769.403 283.962 773.000 279.000 C 779.141 270.530 784.715 261.544 789.000 252.000 C 792.113 245.066 793.750 237.498 795.000 230.000 C 796.097 223.416 796.342 216.666 796.000 210.000 C 795.672 203.597 794.700 197.182 793.000 191.000 C 791.014 183.777 788.418 176.665 785.000 170.000 C 781.709 163.583 777.527 157.613 773.000 152.000 C 753.105 127.330 716.693 116.000 685.000 116.000 Z" fill="#f33d3b" />
</svg>