<svg width="960" height="640" viewBox="0 0 960 640" fill="none" xmlns="http://www.w3.org/2000/svg" role="img" aria-labelledby="title">
  <title>Workflow hero illustration</title>
  <rect width="960" height="640" rx="28" fill="#FFF7F6"/>
  <rect x="72" y="96" width="404" height="448" rx="20" fill="white" stroke="#EEC1BC" stroke-width="4"/>
  <rect x="108" y="142" width="220" height="20" rx="10" fill="#F2D4D1"/>
  <rect x="108" y="182" width="320" height="14" rx="7" fill="#E6E2E2"/>
  <rect x="108" y="212" width="290" height="14" rx="7" fill="#E6E2E2"/>
  <rect x="108" y="260" width="156" height="46" rx="12" fill="#E10600"/>
  <rect x="108" y="338" width="328" height="150" rx="14" fill="#FFF1EF" stroke="#EEC1BC"/>
  <path d="M150 432H292" stroke="#E10600" stroke-width="8" stroke-linecap="round"/>
  <path d="M286 420L314 432L286 444" stroke="#E10600" stroke-width="8" stroke-linecap="round" stroke-linejoin="round"/>
  <rect x="530" y="140" width="356" height="370" rx="22" fill="white" stroke="#EEC1BC" stroke-width="4"/>
  <rect x="568" y="192" width="280" height="18" rx="9" fill="#E6E2E2"/>
  <rect x="568" y="226" width="244" height="18" rx="9" fill="#E6E2E2"/>
  <circle cx="612" cy="318" r="38" fill="#F4C3BD"/>
  <circle cx="705" cy="318" r="38" fill="#F08B81"/>
  <circle cx="798" cy="318" r="38" fill="#ED6358"/>
  <rect x="568" y="388" width="280" height="84" rx="12" fill="#FFF1EF"/>
</svg>
